<svg width="1200" height="420" viewBox="0 0 1200 420" fill="none" xmlns="http://www.w3.org/2000/svg">
  <defs>
    <linearGradient id="cmProcessGradient" x1="64" y1="206" x2="1136" y2="206" gradientUnits="userSpaceOnUse">
      <stop stop-color="#FF5A1A"/>
      <stop offset="1" stop-color="#FFB347"/>
    </linearGradient>
    <marker id="cmProcessArrow" markerWidth="12" markerHeight="12" refX="9" refY="6" orient="auto" markerUnits="strokeWidth">
      <path d="M1 1L9 6L1 11" stroke="#FF9A3D" stroke-width="1.8" fill="none" stroke-linecap="round" stroke-linejoin="round"/>
    </marker>
  </defs>
  <path d="M112 96H174C205.5 96 231 121.5 231 153V255C231 286.5 256.5 312 288 312H378" stroke="url(#cmProcessGradient)" stroke-width="13" stroke-linecap="round" stroke-linejoin="round"/>
  <path d="M452 312H512C543.5 312 569 286.5 569 255V152C569 120.5 594.5 95 626 95H713" stroke="url(#cmProcessGradient)" stroke-width="13" stroke-linecap="round" stroke-linejoin="round"/>
  <path d="M786 95H840C871.5 95 897 120.5 897 152V255C897 286.5 922.5 312 954 312H1042" stroke="url(#cmProcessGradient)" stroke-width="13" stroke-linecap="round" stroke-linejoin="round" marker-end="url(#cmProcessArrow)"/>
</svg>
